# xmcd
#
# Track frame offsets:
#	150
#	12825
#	24165
#	38572
#	51930
#	70207
#	83677
#	98090
#	110265
#	121857
#	132747
#	143452
#	153462
#	166422
#	177442
#
# Disc length: 2531
#
# Revision: 2
# Processed by: cddbd v1.5.1PL0 Copyright (c) Steve Scherf et al.
# Submitted via: OrangeCD 4.1
# Normalized: r0:DSETVAR1,TDELIM( - ),TSWAP
#
DISCID=b809e10f
DTITLE=Various Artist - #1 Country Gold, Vol. 1
DYEAR=1900
DGENRE=
TTITLE0=Patsy Cline - I Fall To Pieces
TTITLE1=Donna Fargo - Happiest Girl In The Whole U.S.A
TTITLE2=Lee Greenwood - God Bless The U.S.A
TTITLE3=Loretta Lynn - Coal Miner's Daughter
TTITLE4=Don Williams - I Believe In You
TTITLE5=Conway Twitty - You've Never Been This Far Before
TTITLE6=Jeannie C. Riley - Harper Valley PTA
TTITLE7=Johnny Cash - I Walk The Line
TTITLE8=Sammi Smith - Help Me Make It Through The Night
TTITLE9=Reba McEntire - Can't Even Get The Blues
TTITLE10=The Kendalls - Heaven's Just A Sin Away
TTITLE11=Statler Brothers - Do You Know You Are My Sunshine?
TTITLE12=Hank Williams - Jambalaya
TTITLE13=Roger Miller - King Of The Road
TTITLE14=George Jones - White Lightning
EXTD=
EXTT0=
EXTT1=
EXTT2=
EXTT3=
EXTT4=
EXTT5=
EXTT6=
EXTT7=
EXTT8=
EXTT9=
EXTT10=
EXTT11=
EXTT12=
EXTT13=
EXTT14=
PLAYORDER=
